# xmcd CD database file
#
# Track frame offsets:
#	150
#	14400
#	16907
#	38991
#	70132
#	94822
#	122490
#	145880
#	163838
#	185402
#	210079
#
# Disc length: 3331 seconds
#
# Revision: 0
# Processed by: cddbd v1.5.1PL2 Copyright (c) Steve Scherf et al.
# Submitted via: CDex 1.51
#
DISCID=8d0d010b
DTITLE=Herbie Hancock  - Herbie Hancock  Future 2 Future
DYEAR=2001
DGENRE=Jazz
TTITLE0=Herbie Hancock - Hebero Part I
TTITLE1=Herbie Hancock - Wisdom
TTITLE2=Herbie Hancock - The Essence
TTITLE3=Herbie Hancock - This Is Rob Swift
TTITLE4=Herbie Hancock - Black Gravity
TTITLE5=Herbie Hancock - Tony Williams
TTITLE6=Herbie Hancock - Be Still
TTITLE7=Herbie Hancock - Lonosphere
TTITLE8=Herbie Hancock - Hebero Part II
TTITLE9=Herbie Hancock - Alphabeta
TTITLE10=Herbie Hancock - Virtual Hornets
EXTD=YEAR: 2001
EXTT0=
EXTT1=
EXTT2=
EXTT3=
EXTT4=
EXTT5=
EXTT6=
EXTT7=
EXTT8=
EXTT9=
EXTT10=
PLAYORDER=
